<?xml version="1.0" standalone="no"?>
<!DOCTYPE svg PUBLIC "-//W3C//DTD SVG 20010904//EN"
 "http://www.w3.org/TR/2001/REC-SVG-20010904/DTD/svg10.dtd">
<svg version="1.0" xmlns="http://www.w3.org/2000/svg"
 width="512.000000pt" height="512.000000pt" viewBox="0 0 512.000000 512.000000"
 preserveAspectRatio="xMidYMid meet">

<g transform="translate(0.000000,512.000000) scale(0.100000,-0.100000)"
fill="blue" stroke="none">
<path d="M3140 3845 l-835 -835 53 0 52 0 0 -450 0 -450 -300 0 -300 0 0 -302
0 -303 -253 253 -252 252 -433 -433 c-237 -237 -432 -436 -432 -441 0 -26 194
-261 319 -387 404 -403 887 -642 1466 -725 82 -12 186 -18 330 -18 215 0 320
9 505 46 959 187 1732 916 1975 1864 57 222 78 388 79 634 1 441 -89 813 -288
1196 -124 237 -258 418 -460 619 -122 122 -357 315 -382 315 -5 0 -385 -376
-844 -835z m697 -1812 l-527 -528 0 303 0 302 -300 0 -300 0 0 450 0 450 300
0 300 0 0 302 0 303 527 -528 528 -527 -528 -527z"/>
</g>
</svg>
