<?xml version="1.0" standalone="no"?>
<!DOCTYPE svg PUBLIC "-//W3C//DTD SVG 20010904//EN"
 "http://www.w3.org/TR/2001/REC-SVG-20010904/DTD/svg10.dtd">
<svg version="1.0" xmlns="http://www.w3.org/2000/svg"
 width="512.000000pt" height="512.000000pt" viewBox="0 0 512.000000 512.000000"
 preserveAspectRatio="xMidYMid meet">

<g transform="translate(0.000000,512.000000) scale(0.100000,-0.100000)"
fill="blue" stroke="none">
<path d="M2320 5109 c-198 -19 -451 -76 -635 -143 -124 -46 -375 -168 -475
-232 -321 -204 -619 -502 -824 -824 -82 -128 -202 -386 -255 -545 -49 -150
-89 -321 -113 -490 -17 -118 -17 -512 0 -630 86 -604 342 -1113 765 -1521 204
-197 401 -336 652 -459 186 -92 306 -136 499 -185 591 -149 1198 -87 1744 180
265 129 469 276 688 494 220 221 358 413 489 681 93 190 138 311 185 500 60
239 74 356 74 620 1 233 -7 319 -45 510 -132 660 -531 1250 -1104 1633 -132
88 -390 218 -540 271 -356 126 -742 175 -1105 140z m545 -254 c705 -96 1314
-498 1683 -1110 162 -269 269 -582 313 -915 16 -122 16 -418 0 -540 -70 -530
-297 -996 -666 -1365 -697 -697 -1745 -877 -2634 -453 -485 232 -888 643
-1109 1132 -139 308 -205 615 -205 956 0 341 66 648 205 956 332 735 1038
1251 1838 1343 191 22 392 21 575 -4z"/>
<path d="M3610 4013 c-604 -45 -1161 -243 -1542 -549 l-67 -54 -298 0 -298 0
-425 -425 -425 -425 469 0 469 0 -7 -31 c-3 -16 -11 -82 -17 -145 l-12 -116
406 -405 405 -406 116 12 c63 6 129 14 145 17 l31 7 0 -469 0 -469 425 425
425 425 0 298 0 298 54 67 c209 260 363 589 460 977 59 240 86 456 93 748 l6
227 -184 -2 c-101 -1 -204 -3 -229 -5z m164 -320 c-11 -153 -36 -350 -59 -468
-162 -812 -618 -1373 -1212 -1494 -56 -12 -109 -21 -120 -21 -11 0 -152 134
-347 329 l-329 329 18 98 c94 522 499 931 1140 1151 246 84 594 148 832 152
l83 1 -6 -77z m-2004 -528 c0 -2 -21 -35 -47 -72 -27 -37 -73 -117 -104 -178
l-56 -110 -209 -3 -209 -2 185 185 185 185 127 0 c71 0 128 -2 128 -5z m1400
-1523 l0 -127 -185 -185 -185 -185 2 209 3 209 110 56 c61 31 139 77 175 103
36 25 68 47 73 47 4 1 7 -56 7 -127z"/>
<path d="M2681 3274 c-168 -45 -313 -192 -350 -355 -17 -73 -13 -190 9 -260
62 -202 248 -339 459 -339 141 1 236 38 335 131 162 151 201 381 100 581 -34
67 -135 168 -202 202 -108 55 -240 70 -351 40z m197 -239 c35 -11 65 -29 96
-61 114 -114 91 -293 -49 -379 -42 -26 -58 -30 -119 -30 -82 1 -135 23 -183
78 -116 133 -58 340 109 392 57 18 84 18 146 0z"/>
<path d="M1275 1958 c-53 -62 -113 -166 -143 -250 -24 -65 -27 -87 -27 -198 0
-121 1 -128 33 -192 41 -83 120 -158 200 -189 78 -30 215 -37 302 -15 85 21
231 94 303 151 l58 46 -82 89 -82 89 -63 -45 c-127 -91 -261 -124 -348 -86
-39 18 -50 29 -68 68 -40 91 -4 233 92 360 l39 52 -89 81 -88 81 -37 -42z"/>
</g>
</svg>
