<?xml version="1.0" standalone="no"?>
<!DOCTYPE svg PUBLIC "-//W3C//DTD SVG 20010904//EN"
 "http://www.w3.org/TR/2001/REC-SVG-20010904/DTD/svg10.dtd">
<svg version="1.0" xmlns="http://www.w3.org/2000/svg"
 width="512.000000pt" height="512.000000pt" viewBox="0 0 512.000000 512.000000"
 preserveAspectRatio="xMidYMid meet">

<g transform="translate(0.000000,512.000000) scale(0.100000,-0.100000)"
fill="blue" stroke="none">
<path d="M3097 3962 c-22 -25 -22 -85 1 -104 9 -8 48 -33 86 -57 163 -100 321
-242 441 -396 67 -87 119 -165 113 -171 -3 -2 -20 1 -39 6 -53 15 -78 12 -104
-15 -29 -28 -32 -64 -7 -94 21 -27 291 -106 328 -97 35 9 49 37 90 189 35 128
37 141 23 165 -36 65 -111 50 -140 -27 l-16 -44 -45 69 c-135 208 -333 401
-555 540 -95 59 -146 70 -176 36z"/>
<path d="M725 3372 c-160 -65 -178 -82 -151 -146 17 -41 54 -55 98 -38 15 5
28 8 28 5 0 -3 -20 -55 -44 -116 -86 -216 -120 -395 -121 -640 0 -176 0 -179
24 -198 30 -25 76 -24 101 1 18 18 20 33 20 138 0 266 50 507 148 716 l36 79
28 -62 c30 -67 59 -88 102 -71 26 10 56 46 56 69 0 8 -23 73 -50 145 -51 130
-82 176 -118 176 -9 -1 -80 -26 -157 -58z"/>
<path d="M3100 1024 c-182 -117 -428 -206 -664 -239 l-49 -7 33 43 c42 52 46
102 11 130 -26 22 -68 24 -92 6 -8 -7 -54 -61 -102 -122 -86 -109 -102 -146
-79 -182 4 -7 59 -53 122 -103 127 -99 153 -108 195 -65 36 35 32 71 -10 111
l-35 33 37 6 c278 48 482 120 686 241 91 55 107 71 107 114 0 78 -70 92 -160
34z"/>
</g>
</svg>
