<?xml version="1.0" standalone="no"?>
<!DOCTYPE svg PUBLIC "-//W3C//DTD SVG 20010904//EN"
 "http://www.w3.org/TR/2001/REC-SVG-20010904/DTD/svg10.dtd">
<svg version="1.0" xmlns="http://www.w3.org/2000/svg"
 width="512.000000pt" height="512.000000pt" viewBox="0 0 512.000000 512.000000"
 preserveAspectRatio="xMidYMid meet">

<g transform="translate(0.000000,512.000000) scale(0.100000,-0.100000)"
fill="blue" stroke="none">
<path d="M520 4308 c-50 -14 -96 -62 -109 -114 -15 -61 -15 -2893 0 -2949 12
-45 40 -79 84 -103 24 -14 68 -17 238 -20 l207 -4 0 161 0 161 -55 0 c-68 0
-106 19 -140 67 l-25 38 0 1175 c0 1155 0 1176 20 1208 30 49 75 72 143 72
l57 0 0 160 0 160 -192 -1 c-106 0 -209 -5 -228 -11z"/>
<path d="M1040 3360 l0 -295 31 31 c41 41 48 82 49 259 0 190 -5 216 -46 262
l-33 38 -1 -295z"/>
<path d="M1863 3247 c-236 -316 -234 -760 6 -1061 l31 -39 0 572 c0 314 -1
571 -2 571 -2 0 -17 -20 -35 -43z"/>
<path d="M1050 2081 l0 -284 24 22 c36 34 46 93 46 263 0 167 -8 214 -45 255
l-24 28 -1 -284z"/>
</g>
</svg>
