<?xml version="1.0" standalone="no"?>
<!DOCTYPE svg PUBLIC "-//W3C//DTD SVG 20010904//EN"
 "http://www.w3.org/TR/2001/REC-SVG-20010904/DTD/svg10.dtd">
<svg version="1.0" xmlns="http://www.w3.org/2000/svg"
 width="512.000000pt" height="512.000000pt" viewBox="0 0 512.000000 512.000000"
 preserveAspectRatio="xMidYMid meet">

<g transform="translate(0.000000,512.000000) scale(0.100000,-0.100000)"
fill="blue" stroke="none">
<path d="M4341 4164 c-17 -21 -21 -41 -21 -95 l0 -69 -882 0 -883 0 0 -160 0
-160 883 0 882 0 0 -73 c0 -83 16 -117 56 -117 22 0 356 201 475 286 44 32 50
40 47 68 -3 29 -20 42 -253 188 -137 87 -258 158 -267 158 -9 0 -26 -12 -37
-26z"/>
</g>
</svg>
